<?xml version="1.0" standalone="no"?>
<!DOCTYPE svg PUBLIC "-//W3C//DTD SVG 20010904//EN"
 "http://www.w3.org/TR/2001/REC-SVG-20010904/DTD/svg10.dtd">
<svg version="1.0" xmlns="http://www.w3.org/2000/svg"
 width="508.000000pt" height="508.000000pt" viewBox="0 0 508.000000 508.000000"
 preserveAspectRatio="xMidYMid meet">
<metadata>
Created by potrace 1.11, written by Peter Selinger 2001-2013
</metadata>
<g transform="translate(0.000000,508.000000) scale(0.100000,-0.100000)"
fill="#000000" stroke="none">
<path d="M2391 4258 c-141 -21 -271 -138 -310 -281 -20 -71 -10 -183 22 -249
113 -230 437 -285 618 -105 78 78 111 154 111 257 0 107 -38 194 -118 273 -84
83 -204 122 -323 105z"/>
<path d="M1288 3451 c-4 -19 -3 -611 1 -612 46 -11 108 2 97 20 -6 10 16 36
44 52 20 11 100 14 398 14 l372 1 0 -913 0 -914 -25 -24 c-13 -14 -31 -25 -40
-25 -11 0 -15 -12 -15 -50 l0 -50 348 2 347 3 0 44 c0 42 -2 45 -32 53 -66 17
-63 -30 -63 879 0 453 0 862 0 909 l0 86 353 -2 c193 0 364 -2 379 -3 32 -1
88 -46 88 -71 0 -14 8 -17 48 -16 l47 1 0 310 0 310 -47 0 c-45 1 -46 0 -52
-35 -7 -46 -44 -81 -93 -89 -21 -3 -472 -6 -1003 -5 -814 0 -971 3 -998 15
-30 13 -56 51 -64 93 -2 16 -12 20 -46 22 -23 1 -43 -1 -44 -5z"/>
</g>
</svg>
